<mxfile host="app.diagrams.net" agent="Mozilla/5.0 (Macintosh; Intel Mac OS X 10_15_7) AppleWebKit/605.1.15 (KHTML, like Gecko) Version/18.5 Safari/605.1.15" version="27.0.8">
  <diagram name="Sivu-1" id="BHcu0ms929qGW9cuDSSE">
    <mxGraphModel dx="842" dy="611" grid="1" gridSize="10" guides="1" tooltips="1" connect="1" arrows="1" fold="1" page="1" pageScale="1" pageWidth="827" pageHeight="1169" math="0" shadow="0">
      <root>
        <mxCell id="0" />
        <mxCell id="1" parent="0" />
        <mxCell id="l7SoQfaUpbFR2vdVuzcl-1" value="&lt;font style=&quot;font-size: 10px;&quot;&gt;Ohjelma alkaa&lt;/font&gt;" style="rounded=1;whiteSpace=wrap;html=1;" parent="1" vertex="1">
          <mxGeometry x="339" y="40" width="120" height="60" as="geometry" />
        </mxCell>
        <mxCell id="l7SoQfaUpbFR2vdVuzcl-2" value="" style="endArrow=classic;html=1;rounded=0;exitX=0.5;exitY=1;exitDx=0;exitDy=0;entryX=0.5;entryY=0;entryDx=0;entryDy=0;" parent="1" source="N0albN0jINHC4ia6SpSg-25" edge="1">
          <mxGeometry width="50" height="50" relative="1" as="geometry">
            <mxPoint x="609.5" y="280" as="sourcePoint" />
            <mxPoint x="399.5" y="150" as="targetPoint" />
          </mxGeometry>
        </mxCell>
        <mxCell id="l7SoQfaUpbFR2vdVuzcl-6" value="&lt;font style=&quot;font-size: 10px;&quot;&gt;&lt;br&gt;&lt;/font&gt;&lt;div&gt;&lt;font style=&quot;font-size: 10px;&quot;&gt;Mikä tavoite?&lt;/font&gt;&lt;/div&gt;&lt;div&gt;&lt;font style=&quot;font-size: 10px;&quot;&gt;&lt;span style=&quot;font-family: &amp;quot;Helvetica Neue&amp;quot;;&quot;&gt;laihtua / kasvattaa massaa&lt;/span&gt;&lt;span style=&quot;font-family: &amp;quot;Helvetica Neue&amp;quot;;&quot;&gt;&amp;nbsp; &lt;/span&gt;&lt;span style=&quot;font-family: &amp;quot;Helvetica Neue&amp;quot;;&quot;&gt;/&amp;nbsp;&lt;/span&gt;&lt;/font&gt;&lt;/div&gt;&lt;div&gt;&lt;font style=&quot;font-size: 10px;&quot;&gt;&lt;span style=&quot;font-family: &amp;quot;Helvetica Neue&amp;quot;;&quot;&gt;pitää kunto kunnossa&lt;/span&gt;&lt;/font&gt;&lt;/div&gt;" style="rhombus;whiteSpace=wrap;html=1;fillColor=#fff2cc;strokeColor=#d6b656;" parent="1" vertex="1">
          <mxGeometry x="314" y="240" width="170" height="100" as="geometry" />
        </mxCell>
        <mxCell id="N0albN0jINHC4ia6SpSg-5" value="&lt;font style=&quot;font-size: 10px;&quot;&gt;&amp;nbsp;&lt;/font&gt;&lt;div&gt;&lt;font style=&quot;font-size: 10px;&quot;&gt;mikä taso?&lt;/font&gt;&lt;/div&gt;&lt;div&gt;&lt;span style=&quot;font-family: &amp;quot;Helvetica Neue&amp;quot;;&quot;&gt;&lt;font style=&quot;font-size: 10px;&quot;&gt;aloittelija / keskitaso / edistynyt&lt;/font&gt;&lt;/span&gt;&lt;/div&gt;" style="rhombus;whiteSpace=wrap;html=1;fillColor=#fff2cc;strokeColor=#d6b656;" parent="1" vertex="1">
          <mxGeometry x="319" y="360" width="160" height="80" as="geometry" />
        </mxCell>
        <mxCell id="N0albN0jINHC4ia6SpSg-8" value="&lt;font style=&quot;font-size: 10px;&quot;&gt;mieltymys&lt;/font&gt;&lt;div&gt;&lt;font style=&quot;font-size: 10px;&quot;&gt;&lt;span style=&quot;font-family: &amp;quot;Helvetica Neue&amp;quot;;&quot;&gt;kardiotreeni / voimaharjoittelu / venyttely&lt;/span&gt;&lt;/font&gt;&lt;/div&gt;" style="rhombus;whiteSpace=wrap;html=1;fillColor=#fff2cc;strokeColor=#d6b656;" parent="1" vertex="1">
          <mxGeometry x="319" y="460" width="160" height="80" as="geometry" />
        </mxCell>
        <mxCell id="N0albN0jINHC4ia6SpSg-9" value="" style="edgeStyle=orthogonalEdgeStyle;rounded=0;orthogonalLoop=1;jettySize=auto;html=1;" parent="1" edge="1">
          <mxGeometry relative="1" as="geometry">
            <mxPoint x="398.82" y="440" as="sourcePoint" />
            <mxPoint x="398.82" y="460" as="targetPoint" />
          </mxGeometry>
        </mxCell>
        <mxCell id="N0albN0jINHC4ia6SpSg-14" style="edgeStyle=orthogonalEdgeStyle;rounded=0;orthogonalLoop=1;jettySize=auto;html=1;exitX=0.5;exitY=1;exitDx=0;exitDy=0;" parent="1" source="l7SoQfaUpbFR2vdVuzcl-1" target="l7SoQfaUpbFR2vdVuzcl-1" edge="1">
          <mxGeometry relative="1" as="geometry" />
        </mxCell>
        <mxCell id="N0albN0jINHC4ia6SpSg-16" style="edgeStyle=orthogonalEdgeStyle;rounded=0;orthogonalLoop=1;jettySize=auto;html=1;exitX=0.5;exitY=1;exitDx=0;exitDy=0;" parent="1" edge="1">
          <mxGeometry relative="1" as="geometry">
            <mxPoint x="399.5" y="170" as="sourcePoint" />
            <mxPoint x="399.5" y="170" as="targetPoint" />
          </mxGeometry>
        </mxCell>
        <mxCell id="N0albN0jINHC4ia6SpSg-17" value="" style="endArrow=classic;html=1;rounded=0;" parent="1" edge="1">
          <mxGeometry width="50" height="50" relative="1" as="geometry">
            <mxPoint x="399.01" y="170" as="sourcePoint" />
            <mxPoint x="399" y="190" as="targetPoint" />
          </mxGeometry>
        </mxCell>
        <mxCell id="N0albN0jINHC4ia6SpSg-18" value="" style="endArrow=classic;html=1;rounded=0;" parent="1" edge="1">
          <mxGeometry width="50" height="50" relative="1" as="geometry">
            <mxPoint x="399.01" y="220" as="sourcePoint" />
            <mxPoint x="399" y="240" as="targetPoint" />
          </mxGeometry>
        </mxCell>
        <mxCell id="N0albN0jINHC4ia6SpSg-23" value="väärä syöttö" style="rounded=0;whiteSpace=wrap;html=1;fillColor=#FFE3E1;strokeColor=light-dark(#000000, #d7817e);" parent="1" vertex="1">
          <mxGeometry x="554.25" y="277.5" width="79.5" height="25" as="geometry" />
        </mxCell>
        <mxCell id="N0albN0jINHC4ia6SpSg-24" value="" style="endArrow=classic;html=1;rounded=0;dashed=1;startArrow=classic;startFill=1;exitX=1;exitY=0.5;exitDx=0;exitDy=0;dashPattern=8 8;entryX=0;entryY=0.5;entryDx=0;entryDy=0;" parent="1" source="l7SoQfaUpbFR2vdVuzcl-6" target="N0albN0jINHC4ia6SpSg-23" edge="1">
          <mxGeometry width="50" height="50" relative="1" as="geometry">
            <mxPoint x="508.5" y="279.81" as="sourcePoint" />
            <mxPoint x="553.75" y="279.81" as="targetPoint" />
          </mxGeometry>
        </mxCell>
        <mxCell id="N0albN0jINHC4ia6SpSg-27" value="" style="endArrow=classic;html=1;rounded=0;exitX=0.5;exitY=1;exitDx=0;exitDy=0;entryX=0.5;entryY=0;entryDx=0;entryDy=0;" parent="1" source="l7SoQfaUpbFR2vdVuzcl-1" target="N0albN0jINHC4ia6SpSg-25" edge="1">
          <mxGeometry width="50" height="50" relative="1" as="geometry">
            <mxPoint x="399.5" y="100" as="sourcePoint" />
            <mxPoint x="399.5" y="150" as="targetPoint" />
          </mxGeometry>
        </mxCell>
        <mxCell id="N0albN0jINHC4ia6SpSg-25" value="&lt;font style=&quot;font-size: 10px;&quot;&gt;käyttäjän nimi&lt;/font&gt;" style="rounded=0;whiteSpace=wrap;html=1;fillColor=#f5f5f5;strokeColor=#666666;fontColor=#333333;" parent="1" vertex="1">
          <mxGeometry x="354" y="140" width="90" height="30" as="geometry" />
        </mxCell>
        <mxCell id="N0albN0jINHC4ia6SpSg-28" value="&lt;font style=&quot;font-size: 10px;&quot;&gt;alkutervehdys&amp;nbsp;&lt;/font&gt;&lt;div&gt;&lt;font style=&quot;font-size: 10px;&quot;&gt;nimen kanssa&lt;/font&gt;&lt;/div&gt;" style="rounded=0;whiteSpace=wrap;html=1;fillColor=#f5f5f5;strokeColor=#666666;fontColor=#333333;" parent="1" vertex="1">
          <mxGeometry x="324" y="190" width="150" height="30" as="geometry" />
        </mxCell>
        <mxCell id="N0albN0jINHC4ia6SpSg-29" value="väärä syöttö" style="rounded=0;whiteSpace=wrap;html=1;strokeColor=default;fillColor=#FFE3E1;" parent="1" vertex="1">
          <mxGeometry x="544.25" y="385" width="80" height="30" as="geometry" />
        </mxCell>
        <mxCell id="N0albN0jINHC4ia6SpSg-31" value="väärä syöttö" style="rounded=0;whiteSpace=wrap;html=1;fillColor=#FFE3E1;" parent="1" vertex="1">
          <mxGeometry x="544.25" y="485" width="80" height="30" as="geometry" />
        </mxCell>
        <mxCell id="N0albN0jINHC4ia6SpSg-33" value="&lt;font style=&quot;font-size: 10px;&quot;&gt;Mikä on painosi&lt;/font&gt;" style="rhombus;whiteSpace=wrap;html=1;fillColor=#fff2cc;strokeColor=#d6b656;" parent="1" vertex="1">
          <mxGeometry x="323.75" y="560" width="150.5" height="80" as="geometry" />
        </mxCell>
        <mxCell id="N0albN0jINHC4ia6SpSg-34" value="" style="edgeStyle=orthogonalEdgeStyle;rounded=0;orthogonalLoop=1;jettySize=auto;html=1;" parent="1" edge="1">
          <mxGeometry relative="1" as="geometry">
            <mxPoint x="398.81999999999994" y="540" as="sourcePoint" />
            <mxPoint x="398.81999999999994" y="560" as="targetPoint" />
            <Array as="points">
              <mxPoint x="398.81999999999994" y="560" />
              <mxPoint x="398.81999999999994" y="560" />
            </Array>
          </mxGeometry>
        </mxCell>
        <mxCell id="N0albN0jINHC4ia6SpSg-35" value="väärä syöttö" style="rounded=0;whiteSpace=wrap;html=1;fillColor=#FFE3E1;" parent="1" vertex="1">
          <mxGeometry x="540" y="585" width="80" height="30" as="geometry" />
        </mxCell>
        <mxCell id="N0albN0jINHC4ia6SpSg-42" value="" style="edgeStyle=orthogonalEdgeStyle;rounded=0;orthogonalLoop=1;jettySize=auto;html=1;" parent="1" source="N0albN0jINHC4ia6SpSg-37" target="N0albN0jINHC4ia6SpSg-40" edge="1">
          <mxGeometry relative="1" as="geometry">
            <Array as="points">
              <mxPoint x="395.25" y="730" />
              <mxPoint x="395.25" y="730" />
            </Array>
          </mxGeometry>
        </mxCell>
        <mxCell id="N0albN0jINHC4ia6SpSg-37" value="&lt;font style=&quot;font-size: 10px;&quot;&gt;Treenin suositukset&lt;/font&gt;" style="rounded=0;whiteSpace=wrap;html=1;fillColor=#b0e3e6;strokeColor=#0e8088;" parent="1" vertex="1">
          <mxGeometry x="339" y="657.5" width="120" height="45" as="geometry" />
        </mxCell>
        <mxCell id="N0albN0jINHC4ia6SpSg-38" value="" style="edgeStyle=orthogonalEdgeStyle;rounded=0;orthogonalLoop=1;jettySize=auto;html=1;" parent="1" edge="1">
          <mxGeometry relative="1" as="geometry">
            <mxPoint x="398.82" y="640" as="sourcePoint" />
            <mxPoint x="398.82" y="660" as="targetPoint" />
            <Array as="points">
              <mxPoint x="398.82" y="660" />
              <mxPoint x="398.82" y="660" />
            </Array>
          </mxGeometry>
        </mxCell>
        <mxCell id="N0albN0jINHC4ia6SpSg-39" value="&lt;font style=&quot;font-size: 10px;&quot;&gt;Loppu&lt;/font&gt;" style="rounded=1;whiteSpace=wrap;html=1;" parent="1" vertex="1">
          <mxGeometry x="339" y="900" width="120" height="30" as="geometry" />
        </mxCell>
        <mxCell id="N0albN0jINHC4ia6SpSg-44" style="edgeStyle=orthogonalEdgeStyle;rounded=0;orthogonalLoop=1;jettySize=auto;html=1;entryX=0.5;entryY=0;entryDx=0;entryDy=0;" parent="1" source="N0albN0jINHC4ia6SpSg-40" target="N0albN0jINHC4ia6SpSg-43" edge="1">
          <mxGeometry relative="1" as="geometry">
            <Array as="points">
              <mxPoint x="395" y="760" />
              <mxPoint x="395" y="760" />
            </Array>
          </mxGeometry>
        </mxCell>
        <mxCell id="N0albN0jINHC4ia6SpSg-40" value="&lt;font style=&quot;font-size: 10px;&quot;&gt;Veden laskenta&lt;/font&gt;&lt;div&gt;&lt;font style=&quot;font-size: 10px;&quot;&gt;paino x 0.03&lt;/font&gt;&lt;/div&gt;&lt;div&gt;&lt;font style=&quot;font-size: 10px;&quot;&gt;+ 0.5 litraa&lt;/font&gt;&lt;/div&gt;" style="rounded=0;whiteSpace=wrap;html=1;fillColor=#dae8fc;strokeColor=#6c8ebf;" parent="1" vertex="1">
          <mxGeometry x="336.125" y="720" width="125.75" height="40" as="geometry" />
        </mxCell>
        <mxCell id="N0albN0jINHC4ia6SpSg-45" style="edgeStyle=orthogonalEdgeStyle;rounded=0;orthogonalLoop=1;jettySize=auto;html=1;entryX=0.5;entryY=0;entryDx=0;entryDy=0;" parent="1" source="N0albN0jINHC4ia6SpSg-43" target="N0albN0jINHC4ia6SpSg-39" edge="1">
          <mxGeometry relative="1" as="geometry" />
        </mxCell>
        <mxCell id="N0albN0jINHC4ia6SpSg-43" value="&lt;font style=&quot;font-size: 10px;&quot;&gt;Tulos:&lt;/font&gt;&lt;div&gt;&lt;div style=&quot;white-space: nowrap;&quot;&gt;&lt;font style=&quot;font-size: 10px;&quot;&gt;Nimi&lt;/font&gt;&lt;/div&gt;&lt;div style=&quot;white-space: nowrap;&quot;&gt;&lt;font style=&quot;font-size: 10px;&quot;&gt;Taso&lt;/font&gt;&lt;/div&gt;&lt;div style=&quot;white-space: nowrap;&quot;&gt;&lt;font style=&quot;font-size: 10px;&quot;&gt;Treeniohjelma&lt;/font&gt;&lt;/div&gt;&lt;div style=&quot;white-space: nowrap;&quot;&gt;&lt;font style=&quot;font-size: 10px;&quot;&gt;Veden suositus&lt;/font&gt;&lt;/div&gt;&lt;/div&gt;" style="rounded=0;whiteSpace=wrap;html=1;fillColor=#d5e8d4;strokeColor=#82b366;" parent="1" vertex="1">
          <mxGeometry x="299" y="790" width="200" height="90" as="geometry" />
        </mxCell>
        <mxCell id="N0albN0jINHC4ia6SpSg-46" value="" style="endArrow=classic;html=1;rounded=0;dashed=1;startArrow=classic;startFill=1;exitX=1;exitY=0.5;exitDx=0;exitDy=0;dashPattern=8 8;" parent="1" target="N0albN0jINHC4ia6SpSg-29" edge="1">
          <mxGeometry width="50" height="50" relative="1" as="geometry">
            <mxPoint x="474.75" y="399.93" as="sourcePoint" />
            <mxPoint x="544.25" y="399.74" as="targetPoint" />
            <Array as="points">
              <mxPoint x="490" y="400" />
            </Array>
          </mxGeometry>
        </mxCell>
        <mxCell id="N0albN0jINHC4ia6SpSg-47" value="" style="endArrow=classic;html=1;rounded=0;dashed=1;startArrow=classic;startFill=1;exitX=1;exitY=0.5;exitDx=0;exitDy=0;dashPattern=8 8;" parent="1" source="N0albN0jINHC4ia6SpSg-8" target="N0albN0jINHC4ia6SpSg-31" edge="1">
          <mxGeometry width="50" height="50" relative="1" as="geometry">
            <mxPoint x="474.75" y="499.93" as="sourcePoint" />
            <mxPoint x="544.25" y="499.74" as="targetPoint" />
          </mxGeometry>
        </mxCell>
        <mxCell id="N0albN0jINHC4ia6SpSg-48" value="" style="endArrow=classic;html=1;rounded=0;dashed=1;startArrow=classic;startFill=1;exitX=1;exitY=0.5;exitDx=0;exitDy=0;dashPattern=8 8;" parent="1" target="N0albN0jINHC4ia6SpSg-35" edge="1">
          <mxGeometry width="50" height="50" relative="1" as="geometry">
            <mxPoint x="470.5" y="599.74" as="sourcePoint" />
            <mxPoint x="540" y="600" as="targetPoint" />
          </mxGeometry>
        </mxCell>
        <mxCell id="N0albN0jINHC4ia6SpSg-61" value="" style="endArrow=classic;html=1;rounded=0;exitX=0.5;exitY=1;exitDx=0;exitDy=0;entryX=0.5;entryY=0;entryDx=0;entryDy=0;" parent="1" source="l7SoQfaUpbFR2vdVuzcl-6" target="N0albN0jINHC4ia6SpSg-5" edge="1">
          <mxGeometry width="50" height="50" relative="1" as="geometry">
            <mxPoint x="395" y="330" as="sourcePoint" />
            <mxPoint x="395" y="360" as="targetPoint" />
          </mxGeometry>
        </mxCell>
        <mxCell id="N0albN0jINHC4ia6SpSg-63" value="&lt;span style=&quot;font-size: 28px;&quot;&gt;Personal FitPlan&lt;/span&gt;" style="text;html=1;align=center;verticalAlign=middle;whiteSpace=wrap;rounded=0;" parent="1" vertex="1">
          <mxGeometry x="70" y="50" width="150" height="80" as="geometry" />
        </mxCell>
      </root>
    </mxGraphModel>
  </diagram>
</mxfile>
